<svg xmlns="http://www.w3.org/2000/svg" viewBox="0 0 100 100"><path d="M32.79 39.5l7.62 1.94s-3.09-8.79 10-7.98c0 0 9.28-1.22 7.5 10.09 0 0-9.28 1.79-15.35 2.26 0 0-9.05 2.02-10.24 8.81l-3.57-4.05s-2.38-1.79-1.67 1.19l4.88 4.88s.48 8.81 6.07 10c0 0 2.12 1.67 4.51 1.67v4.4s.73 2.26 2.04 0l-.24-4.4s4.28.12 6.78-.36v4.17s1.19 2.98 2.26 0L53.5 67s4.17-2.98 5.36-4.05l-3.33-3.09s-5.71 6.31-15.12 1.07c0 0-2.87-6.67 2.49-8.69 0 0 12.74-.97 16.43-4.29 0 0-1.31 12.03-6.9 15.12l1.67 1.79 5.95-2.26s.24 4.4 1.07 4.76l6.19.12s-2.62-7.86-1.79-14.4l5-4.28s1.55-2.16-2.14-.84l-3.45 2.51s2.74-14.88-2.38-19.28c0 0-7.5-6.43-20.95-1.79 0-.02-6.31 1.65-8.81 10.1z" fill="#efbe3b"/></svg>