<svg xmlns="http://www.w3.org/2000/svg" viewBox="0 0 100 100"><path d="M44.6 48.48l.06 4.62c.12 7.5 6.42 5.16 6.42 5.16 3.36.24 3.12-6.12 3.12-6.12l10.62.12c1.56 1.86-2.82 9.6-2.82 9.6 4.5 1.92 5.64-5.64 5.64-5.64 2.88-1.98 2.58 1.26 2.58 1.26l-1.92 3.6c-2.52 7.44-8.16 1.98-8.16 1.98-1.68 2.28-5.88 2.88-5.88 2.88v5.94c-.6 3.06-1.68 0-1.68 0v-5.76c-.96-1.38-3.3-.3-3.3-.3l-.3 6.3c-.9 3.84-1.66 0-1.66 0v-7.77c-5.14.39-9.98-4.47-9.98-4.47-8.16 7.2-9.6-6.72-9.6-6.72l2.88.24c1.11 11.12 5.76 4.56 5.76 4.56-2.16-3.6-1.68-9.84-1.68-9.84-2.64-24.24 13.44-22.56 13.44-22.56 22.56.72 18.48 23.91 18.48 23.91l-23.31-.43.93-7.82 10.68.42s1.74-6.81-3.78-9.23c0 0-6.78.35-6.78 8.03l.24 8.04z" fill="#cb543c"/></svg>