<svg xmlns="http://www.w3.org/2000/svg" viewBox="0 0 100 100"><path d="M48.86 43.14l22.08-4.68 1.56 7.92-5.04.84s1.92 6.12 1.56 7.2l6.72-10.8s1.92-1.2 1.56 1.2l-6.96 11.04s-4.44 15.48-15.6 16.08c0 0-1.92 0-1.68 2.16v8.16s-1.32 3.36-2.64 0V74.1s-3-1.32-4.2.12v7.92s-1.08 3.96-2.64 0V74.1s-.96-1.2-2.4-1.92c0 0-5.28-2.28-9.72-8.88l-9.24-7.92s-1.44-2.4 1.56-1.68l6.84 5.52s-5.64-19.68-2.04-27.84c0 0 3.48-12 15.48-14.64 0 0 12.24-3 18.96 6.12 0 0 3.6 7.32 3.24 9.96l-9.96 2.52s-5.88-17.04-15.24-3.6c0 0-4.08 12.48-.24 23.04 0 0 5.4 11.16 14.04 6.48 0 0 5.16-2.76 2.4-11.76l-7.08 1.92-1.32-8.28z" fill="#566ab1"/></svg>