<svg xmlns="http://www.w3.org/2000/svg" viewBox="0 0 100 100"><path d="M46.74 47.13c3.16-.13-.9-3.96-.9-3.96l-3.42-2.25-.99-12.6c2.07 9.09 7.83 8.64 7.83 8.64 5.76 1.26 6.21-7.83 6.21-7.83 1.44-13.95-5.94-12.24-5.94-12.24-7.47-.54-5.67 11.52-5.67 11.52-.9 3.15 3.42 15.48 3.42 15.48-5.94-.18-7.92-2.61-7.92-2.61-7.83-4.68-5.76-18.09-5.76-18.09.72-11.16 12.24-13.5 12.24-13.5 10.44 0 23.76-.72 23.76-.72-1.71.99-.99 8.46-.99 8.46H64.2c1.8 2.34 1.26 11.52 1.26 11.52-1.17 12.24-9.18 14.76-9.18 14.76v2.97c1.71.9 7.65 5.31 7.65 5.31 5.67 5.67 3.69 15.12 3.69 15.12 3.33 4.14 6.39-4.14 6.39-4.14 2.61-1.62 2.34.45 2.34.45l-3.96 6.57c-1.44 3.42-5.58-.45-5.58-.45.18 5.31-10.08 9.54-10.08 9.54v8.64c-1.17 3.15-2.16 0-2.16 0v-8.28s-2.52-.9-3.42.45v7.47s-1.53 2.79-2.61 0l.27-7.38s-16.2-.54-18.18-13.05c0 0-7.56 5.4-8.82-7.83 0 0 .81-2.25 2.79.18 0 0 1.08 9.48 5.49 4.65 0 0-.18-11.76 5.4-13.65 0 0 2.61-2.07 4.86-2.07 0 0 .72 7.38 1.17 7.74 0 0-4.86 1.8-3.06 7.38 0 0 1 4.41 10.62 4.05 0 0 8.01 1.8 10.35-4.5 0 0 3.15-7.11-11.25-7.65 0 0-8.37.09-10.35 1.89l.72-8.08s-.9-1.55 8.19-1.91z" fill="#5c68ad"/></svg>