<svg xmlns="http://www.w3.org/2000/svg" viewBox="0 0 100 100"><path d="M49.44 73.09s1.08 3.33 2.52 0V65.2s5.67.24 9.54-4.53c0 0 3.24 4.32 5.67.81l3.15-6.84s-.45-2.79-2.79-.54c0 0-1.44 7.47-4.23 4.5 0 0 7.29-11.43-.81-27 0 0-5.4-8.91-19.35-4.86 0 0-11.97 3.78-10.98 18.36 0 0-.09 10.17 4.86 15.75 0 0-2.25 4.23-5.31-.81l-.8-2.79s-1.63-3.78-3.07.27c0 0 3.33 14.67 12.87 4.95 0 0 1.26 2.25 3.51 2.7l4.52-6.58s-6.14-3.05-5.06-14.03c0 0-1.17-10.5 5.85-10.16 0 0 6.39-.91 6.39 10.43 0 0 2.25 18-9.81 12.42l-2.52 7.11v8.28s1.71 4.5 2.79.09v-7.29s1.65.6 3.15 0l-.09 7.65z" fill="#cd5341"/></svg>