<svg xmlns="http://www.w3.org/2000/svg" viewBox="0 0 100 100"><path d="M49.46 73.09s1.08 3.33 2.52 0V65.2s5.67.24 9.54-4.53c0 0 4.13 1.51 6.56-1.99l3.51-6.3s.36-3.06-1.98-.81c0 0-3.5 10.01-6.28 7.03 0 0 7.29-11.43-.81-27 0 0-5.4-8.91-19.35-4.86 0 0-11.97 3.78-10.98 18.36 0 0-.09 10.17 4.86 15.75 0 0-2.63 6.01-6.14 2.06l-1.62-2.79s-1.35-3.96-2.79.09c0 0 4.69 11.98 14.23 2.26 0 0 1.26 2.25 3.51 2.7l4.52-6.58s-6.14-3.05-5.06-14.03c0 0-1.17-10.5 5.85-10.16 0 0 6.39-.91 6.39 10.43 0 0 2.25 18-9.81 12.42l-2.52 7.11v8.28s1.71 4.5 2.79.09v-7.29s1.65.6 3.15 0l-.09 7.65z" fill="#efbe3b"/></svg>