<svg xmlns="http://www.w3.org/2000/svg" viewBox="0 0 288 560"><circle cx="125.03" cy="217.84" r="63.6" fill="#fff" stroke="#000" stroke-width="3" stroke-miterlimit="10"/><path d="M97.61 172.75s13.31-.31 22.53 8.88c0 0-4.62 17.82-5.15 24.82 0 0-20.19 2.61-26.99 6.25 0 0-7.31-5.88-8.51-20.36.01 0 6.87-16.19 18.12-19.59zM144.67 174.44s2.83-9.38 2.25-12.54c0 0 11.32.91 21.42 9.6 0 0 9.13 9.92 8.46 18.11 0 0-4.24 3.61-11.84 5.13 0 0-10.18-14.93-20.3-18.8v-1.5zM182.61 244.86v-7.4s9.18-16.21 5.15-25.91c-.01 0 4.38 12.69-5.15 33.31zM154.49 274.04s-5.92.25-8.46 0c0 0-3.1 4.79-22.55 7.4 0 0 24.61-1.54 31.01-7.4zM82.44 238.57s13.01 15.41 20.3 18.06c0 0-3.25 9.09-2.92 14.09 0 0-13-6.27-15.13-5.57 0 0-8.46-15.96-9.65-15.17l7.4-11.41zM134.19 226.73l-6.27 24.76s5.81 8.28 21.42 9.59c0 0 16.5-9.22 19.92-20.3 0 0-1.71-14.42-9.59-20.88l-24.38 5.72-1.1 1.11z"/><path d="M112.75 206.43s19.82 16.85 22.57 23.63l3.31-3.33s-17.09-13.34-26.52-23.66l.64 3.36zM117.68 186.84s3.9-11.31 29.46-10.34c0 0-12.24-5.03-31.06 5.8-18.82 10.84 1.6 4.54 1.6 4.54zM165.2 193.47s-1.06 24.56-6.65 27.01l2.63 1.83s4-11.68 5.15-28.84h-1.13zM175.91 189.47s11.64 12.03 12.15 23.24c0 0-.61-12.69-12.15-24.83M97.59 173.87l7.4-15.84-1.12.64-8.09 17.36"/><path d="M98.72 158.67s2.85.04 5.15 1.01c0 0 12.88-5.86 25.87-5.64-.01 0-14.86-2.75-31.02 4.63zM61.44 209.77s4.38-13.94 7.33-14.03c0 0 3.12-2.33 11.84-2.27l2.3-3.3s-11.68.33-15.2 3.97v-2.86s-2.83 3.58-6.27 18.49zM93.58 209.34s-12.94 8.36-8.88 34.37l-2.96-1.11s.53-29.05 7.16-33.26c6.62-4.21 4.68 0 4.68 0zM99.82 256.63s21.5.54 31.03-8.46l2.19 4.02s-16.69 7.07-33.2 6.5l-.02-2.06zM98.72 268.47s5.52 9.39 24.76 12.96c0 0-20.38-1.97-29.2-14.09l4.44 1.13zM77.61 251.09s-14.15-18.34-16.17-24.36c0 0 6.89 20.82 18.06 25.54M144.67 275.17s5.78-7.59 3.17-16.28l3.31-.19s-1.61 14.23-5.15 17.17l-1.33-.7zM168.14 240.4s12.34-.58 16.28-3.9c0 0-5.03 6.59-16.98 5.4l.7-1.5z"/><path d="M129.73 154.04s16.45 4.18 18.49 10.91l1.13-.7c-.01-.01-4.94-9.27-19.62-10.21zM85.26 263.25s-1.18 3.28-.22 4.04c0 0 .75-3.51 1.81-4.04s-1.59 0-1.59 0z"/></svg>